<svg version="1.1" id="Layer_1" xmlns="http://www.w3.org/2000/svg" xmlns:xlink="http://www.w3.org/1999/xlink" x="0px" y="0px"
	 width="100%" viewBox="0 0 512 512" enable-background="new 0 0 512 512" xml:space="preserve">
<path fill="#030201" opacity="1.000000" stroke="none"
	d="
M513.000000,339.531342 
	C511.335022,346.929016 510.065094,353.982544 507.928131,360.762817 
	C502.377441,378.374512 494.365936,394.428314 476.468292,402.686768 
	C472.214111,404.649780 467.217346,405.678833 462.513336,405.858154 
	C450.884216,406.301453 439.226807,405.991821 427.580811,406.009735 
	C423.170074,406.016510 420.121552,404.217712 419.000122,399.018311 
	C420.813416,391.880219 422.224030,390.696594 428.795471,390.649384 
	C438.791748,390.577545 448.789734,390.549713 458.785431,390.652039 
	C467.941986,390.745758 475.761505,387.463867 480.645721,379.876617 
	C485.449524,372.414337 489.322174,364.269836 492.845459,356.097931 
	C494.877594,351.384613 495.409088,346.024384 496.763733,340.335114 
	C493.678772,340.335114 491.702942,340.335114 489.727081,340.335114 
	C448.906952,340.335114 408.086792,340.339050 367.266663,340.323181 
	C365.272491,340.322388 362.775543,340.863068 361.396759,339.893890 
	C359.065460,338.255219 356.043091,335.689667 355.911133,333.366150 
	C355.777496,331.013702 358.340576,327.848175 360.582611,326.232941 
	C362.325104,324.977722 365.389587,325.355072 367.866852,325.352509 
	C409.186798,325.310089 450.506805,325.322266 491.826782,325.322235 
	C493.755798,325.322235 495.684784,325.322235 498.025330,325.322235 
	C497.654175,303.859985 494.501251,283.869598 481.918213,266.555298 
	C476.505951,259.108032 469.439209,254.680069 459.538330,254.704697 
	C386.895599,254.885361 314.252167,254.800217 241.608978,254.815216 
	C240.235123,254.815491 238.861298,255.016327 237.341782,255.134964 
	C259.588501,287.032288 261.435974,321.616119 253.281036,358.398346 
	C255.200226,358.398346 256.977600,358.398163 258.755005,358.398407 
	C271.750793,358.400269 284.747406,358.317993 297.742065,358.440857 
	C303.928558,358.499329 307.028687,361.112335 307.149841,365.792603 
	C307.277069,370.706421 304.090790,373.336670 297.670532,373.589996 
	C296.505981,373.635956 295.338226,373.601379 294.171936,373.601410 
	C279.843231,373.601868 265.514038,373.548462 251.186478,373.675934 
	C249.570389,373.690308 247.261917,374.238007 246.474579,375.371765 
	C243.203888,380.081665 240.393265,385.111053 237.046127,390.629364 
	C239.257309,390.629364 241.032471,390.629364 242.807617,390.629364 
	C292.458252,390.629364 342.108856,390.627502 391.759491,390.631104 
	C400.564148,390.631744 401.059814,390.977295 404.160400,399.010773 
	C402.990143,404.095551 399.773743,406.054901 394.604187,406.052032 
	C279.874298,405.988861 165.144318,406.068665 50.414646,405.901398 
	C39.152260,405.884979 29.840517,400.206329 22.552366,391.932404 
	C10.708502,378.486603 5.347611,362.020294 2.050223,344.766174 
	C1.711245,342.992401 1.863739,341.124695 1.394091,339.150299 
	C1.000000,328.312439 1.000000,317.624878 1.000000,306.468658 
	C1.998680,301.205139 2.871859,296.380005 4.018209,291.620728 
	C8.486915,273.068115 16.273212,256.472107 32.454823,245.114624 
	C38.406631,240.937195 45.351379,239.261581 52.502853,239.062881 
	C62.151409,238.794830 71.813004,238.996323 81.737076,238.996323 
	C74.104248,220.576019 71.909058,201.390793 73.108910,181.895416 
	C74.344063,161.826584 79.306656,142.514374 91.561806,126.249382 
	C100.251846,114.715996 111.704514,107.432556 127.493965,107.812569 
	C154.951508,108.473396 182.436432,108.004585 209.909866,107.988052 
	C214.415756,107.985344 217.872421,109.402618 218.999786,114.981674 
	C217.187012,122.118134 215.775665,123.324303 209.209641,123.348969 
	C192.889130,123.410278 176.568237,123.369926 160.247498,123.370377 
	C158.497421,123.370430 156.747330,123.370384 153.882950,123.370384 
	C171.836456,146.699265 175.725525,172.801163 175.053467,200.287857 
	C189.784622,200.287857 203.924210,200.280975 218.063797,200.290588 
	C225.898071,200.295914 229.886108,202.917938 229.835175,207.990555 
	C229.785385,212.945679 226.130676,215.293396 218.405685,215.297379 
	C203.433823,215.305069 188.461960,215.299637 173.109680,215.299637 
	C169.841660,231.034653 164.627304,245.754074 154.100983,258.969025 
	C159.458664,258.969025 163.723618,258.969025 168.399597,259.055847 
	C172.336868,259.852509 174.602783,258.265778 176.829437,255.568237 
	C185.693985,244.828979 196.832993,239.609985 211.175125,239.687775 
	C273.565247,240.026169 335.958435,239.770187 398.349854,239.955795 
	C403.189789,239.970200 405.880005,238.605362 407.088135,233.669067 
	C409.738953,225.525146 412.185730,217.684006 414.854126,209.132614 
	C411.683929,209.132614 409.872131,209.132645 408.060364,209.132645 
	C366.911224,209.132614 325.762054,209.134415 284.612915,209.126282 
	C282.782257,209.125916 280.502838,209.703232 279.218018,208.840958 
	C276.833496,207.240646 274.086609,205.102890 273.213348,202.590164 
	C272.015045,199.142365 274.127014,196.019226 277.811646,194.912170 
	C279.989380,194.257874 282.394806,194.157669 284.698181,194.155350 
	C326.180481,194.113647 367.662842,194.124969 409.145172,194.124939 
	C411.070648,194.124939 412.996124,194.124939 415.574890,194.124939 
	C415.035919,187.237076 414.863556,181.085190 413.994843,175.033279 
	C413.111420,168.878983 413.808472,163.802292 420.142120,160.987534 
	C425.882416,161.937805 428.497437,164.736389 429.025879,170.156662 
	C429.594849,175.992889 430.871979,181.809341 430.903351,187.639465 
	C430.997253,205.101715 428.794128,222.250137 421.872437,238.996323 
	C434.355743,238.996323 446.482880,239.243958 458.595734,238.934204 
	C474.046509,238.539093 485.676178,245.703323 494.608063,257.333557 
	C505.259308,271.202606 510.259064,287.460358 512.609314,304.854187 
	C513.000000,316.354218 513.000000,327.708466 513.000000,339.531342 
M170.627350,390.670624 
	C172.541901,390.670624 174.456451,390.670624 177.447708,390.670624 
	C161.332474,370.474640 156.891434,347.375427 155.752182,323.042206 
	C153.814774,323.155975 152.352280,323.241852 149.979324,323.172699 
	C138.693375,323.147980 127.406685,323.191559 116.121765,323.070953 
	C110.106201,323.006653 106.739815,319.196198 107.964867,313.942352 
	C109.018013,309.425690 112.482826,308.129059 116.635368,308.102661 
	C128.085526,308.029816 139.535965,308.000122 151.849030,308.068939 
	C153.446411,307.984772 155.043793,307.900574 155.997086,307.850342 
	C158.857727,296.350464 161.561554,285.480927 164.382889,274.139038 
	C152.558304,274.139038 140.623795,273.678619 128.739685,274.255890 
	C113.973030,274.973175 102.655380,268.989990 93.656761,257.931580 
	C91.439690,255.207047 89.170677,254.302612 85.253517,254.975845 
	C84.335976,255.028336 83.418434,255.080841 82.359756,255.141403 
	C104.666565,286.829590 106.351295,321.503357 98.435249,358.333649 
	C102.339317,358.333649 105.791245,358.330231 109.243156,358.334290 
	C120.741028,358.347809 132.242493,358.199524 143.735199,358.450806 
	C149.201004,358.570343 152.027344,361.398956 152.156815,365.756195 
	C152.294235,370.381195 149.425766,373.088562 143.733231,373.602905 
	C142.244537,373.737427 140.735901,373.663971 139.236420,373.664337 
	C124.905396,373.667755 110.573914,373.614471 96.243958,373.738190 
	C94.614578,373.752289 92.277077,374.255005 91.493851,375.382629 
	C88.222160,380.092926 85.418533,385.128296 82.060699,390.676788 
	C84.131493,390.676788 85.739311,390.676819 87.347122,390.676819 
	C102.011429,390.676819 116.675873,390.715668 131.339996,390.665100 
	C144.162048,390.620850 156.983765,390.475983 170.627350,390.670624 
M16.368172,314.906708 
	C15.331285,330.035736 17.053728,344.857758 21.992710,359.183319 
	C25.432444,369.160278 30.073811,378.581116 38.581291,385.384552 
	C47.199780,392.276642 57.411533,392.579529 65.370316,385.006775 
	C70.431000,380.191620 74.850258,374.203186 77.980118,367.951355 
	C87.426483,349.082581 89.161163,328.734497 86.822998,308.078918 
	C85.183144,293.592438 81.013809,279.809753 72.560913,267.572021 
	C60.903145,250.694412 42.877613,250.612442 31.304909,267.529388 
	C31.117699,267.803009 30.988316,268.116211 30.800821,268.389587 
	C21.377401,282.128052 17.772274,297.696777 16.368172,314.906708 
M217.455582,257.865723 
	C208.116516,253.074799 200.008896,253.531113 192.742401,260.717590 
	C188.107056,265.301910 183.830994,270.779724 181.078796,276.647278 
	C168.315460,303.858368 168.075455,331.968628 177.313751,360.181335 
	C180.522034,369.979034 185.434830,379.189453 193.969360,385.726746 
	C202.334412,392.134247 212.334030,392.506042 219.971161,385.327972 
	C225.172104,380.439606 229.919891,374.397156 232.925812,367.962433 
	C245.480957,341.085938 245.582428,313.260498 236.572388,285.398590 
	C233.133377,274.764099 227.747406,264.911591 217.455582,257.865723 
M157.155334,217.533554 
	C161.697266,196.407883 161.112930,175.489548 154.159073,154.953445 
	C150.713577,144.778214 145.976120,135.217819 137.259308,128.381470 
	C128.786911,121.736816 118.662079,121.538506 110.835892,128.897064 
	C105.854156,133.581131 101.137169,139.287872 98.372307,145.463211 
	C84.737350,175.916992 84.932861,206.713577 98.213959,237.314804 
	C99.914764,241.233673 102.385750,244.933762 105.050972,248.298752 
	C117.081947,263.488525 134.217819,263.025879 144.548416,246.410751 
	C149.898727,237.805603 152.923157,227.754318 157.155334,217.533554 
z"/>
<path fill="#DD771B" opacity="1.000000" stroke="none" 
	d="
M167.988571,258.969025 
	C163.723618,258.969025 159.458664,258.969025 154.100983,258.969025 
	C164.627304,245.754074 169.841660,231.034653 173.109680,215.299637 
	C188.461960,215.299637 203.433823,215.305069 218.405685,215.297379 
	C226.130676,215.293396 229.785385,212.945679 229.835175,207.990555 
	C229.886108,202.917938 225.898071,200.295914 218.063797,200.290588 
	C203.924210,200.280975 189.784622,200.287857 175.053467,200.287857 
	C175.725525,172.801163 171.836456,146.699265 153.882950,123.370384 
	C156.747330,123.370384 158.497421,123.370430 160.247498,123.370377 
	C176.568237,123.369926 192.889130,123.410278 209.209641,123.348969 
	C215.775665,123.324303 217.187012,122.118134 219.074432,115.356018 
	C223.753464,114.994675 228.342850,114.997261 233.517838,115.333694 
	C236.650665,122.650970 237.650360,123.355301 245.502411,123.357231 
	C287.832245,123.367645 330.165741,123.673523 372.489746,123.177551 
	C385.643616,123.023407 395.030640,127.909775 401.471771,138.864944 
	C404.594666,144.176361 408.504395,147.126892 414.836243,145.988586 
	C416.492706,150.759979 418.149170,155.531357 419.973877,160.645142 
	C413.808472,163.802292 413.111420,168.878983 413.994843,175.033279 
	C414.863556,181.085190 415.035919,187.237076 415.574890,194.124939 
	C412.996124,194.124939 411.070648,194.124939 409.145172,194.124939 
	C367.662842,194.124969 326.180481,194.113647 284.698181,194.155350 
	C282.394806,194.157669 279.989380,194.257874 277.811646,194.912170 
	C274.127014,196.019226 272.015045,199.142365 273.213348,202.590164 
	C274.086609,205.102890 276.833496,207.240646 279.218018,208.840958 
	C280.502838,209.703232 282.782257,209.125916 284.612915,209.126282 
	C325.762054,209.134415 366.911224,209.132614 408.060364,209.132645 
	C409.872131,209.132645 411.683929,209.132614 414.854126,209.132614 
	C412.185730,217.684006 409.738953,225.525146 406.628113,233.680817 
	C340.589172,234.003876 275.214325,234.005188 209.839447,234.025467 
	C190.952881,234.031326 177.534836,243.265152 167.988571,258.969025 
M279.500000,174.049072 
	C290.166107,174.044998 300.833130,174.121735 311.497925,174.001129 
	C316.467926,173.944916 319.837860,170.687149 319.769470,166.470978 
	C319.704529,162.470901 316.476776,159.472565 311.759827,159.079117 
	C310.766296,158.996262 309.760986,159.048370 308.761108,159.048340 
	C279.429230,159.047348 250.097336,159.031296 220.765564,159.081558 
	C218.635269,159.085220 216.354858,159.174042 214.406082,159.913422 
	C209.760696,161.675858 208.038055,167.658142 211.541962,170.947174 
	C213.468430,172.755478 216.792969,173.883163 219.504578,173.916885 
	C239.167221,174.161407 258.834320,174.048721 279.500000,174.049072 
M334.500000,231.969315 
	C349.648773,231.968353 364.797699,232.011063 379.946198,231.943375 
	C385.444397,231.918808 388.816925,229.048126 388.936127,224.636276 
	C389.059692,220.061188 385.541260,217.000031 379.809448,216.989685 
	C355.504883,216.945786 331.200195,216.948563 306.895630,216.985580 
	C301.026917,216.994522 297.734863,219.806351 297.768524,224.515442 
	C297.801880,229.184341 301.106903,231.911224 307.031372,231.952408 
	C315.853851,232.013748 324.677094,231.968948 334.500000,231.969315 
M323.755615,149.187408 
	C326.911224,149.182922 330.070251,149.270477 333.221619,149.152863 
	C338.244049,148.965408 341.037628,146.452377 341.224701,142.146118 
	C341.411224,137.853302 338.774567,134.781281 333.949707,134.320129 
	C330.327454,133.973938 326.646393,134.073761 322.999146,134.198746 
	C317.608093,134.383484 314.160187,137.392960 314.116608,141.697388 
	C314.072968,146.008530 317.158020,148.656616 323.755615,149.187408 
z"/>
<path fill="#000000" opacity="1.000000" stroke="none" 
	d="
M414.995972,145.646881 
	C408.504395,147.126892 404.594666,144.176361 401.471771,138.864944 
	C395.030640,127.909775 385.643616,123.023407 372.489746,123.177551 
	C330.165741,123.673523 287.832245,123.367645 245.502411,123.357231 
	C237.650360,123.355301 236.650665,122.650970 233.973450,115.327576 
	C235.010681,109.910820 238.225601,107.941261 243.383072,107.950859 
	C288.621979,108.035072 333.861176,108.036125 379.100159,107.977509 
	C392.806122,107.959747 402.714203,114.892044 410.959137,124.940575 
	C413.091339,127.539192 415.066650,130.339233 416.655823,133.293259 
	C418.923279,137.508163 418.930756,141.712128 414.995972,145.646881 
z"/>
<path fill="#DD771B" opacity="1.000000" stroke="none" 
	d="
M404.614899,399.005737 
	C401.059814,390.977295 400.564148,390.631744 391.759491,390.631104 
	C342.108856,390.627502 292.458252,390.629364 242.807617,390.629364 
	C241.032471,390.629364 239.257309,390.629364 237.046127,390.629364 
	C240.393265,385.111053 243.203888,380.081665 246.474579,375.371765 
	C247.261917,374.238007 249.570389,373.690308 251.186478,373.675934 
	C265.514038,373.548462 279.843231,373.601868 294.171936,373.601410 
	C295.338226,373.601379 296.505981,373.635956 297.670532,373.589996 
	C304.090790,373.336670 307.277069,370.706421 307.149841,365.792603 
	C307.028687,361.112335 303.928558,358.499329 297.742065,358.440857 
	C284.747406,358.317993 271.750793,358.400269 258.755005,358.398407 
	C256.977600,358.398163 255.200226,358.398346 253.281036,358.398346 
	C261.435974,321.616119 259.588501,287.032288 237.341782,255.134964 
	C238.861298,255.016327 240.235123,254.815491 241.608978,254.815216 
	C314.252167,254.800217 386.895599,254.885361 459.538330,254.704697 
	C469.439209,254.680069 476.505951,259.108032 481.918213,266.555298 
	C494.501251,283.869598 497.654175,303.859985 498.025330,325.322235 
	C495.684784,325.322235 493.755798,325.322235 491.826782,325.322235 
	C450.506805,325.322266 409.186798,325.310089 367.866852,325.352509 
	C365.389587,325.355072 362.325104,324.977722 360.582611,326.232941 
	C358.340576,327.848175 355.777496,331.013702 355.911133,333.366150 
	C356.043091,335.689667 359.065460,338.255219 361.396759,339.893890 
	C362.775543,340.863068 365.272491,340.322388 367.266663,340.323181 
	C408.086792,340.339050 448.906952,340.335114 489.727081,340.335114 
	C491.702942,340.335114 493.678772,340.335114 496.763733,340.335114 
	C495.409088,346.024384 494.877594,351.384613 492.845459,356.097931 
	C489.322174,364.269836 485.449524,372.414337 480.645721,379.876617 
	C475.761505,387.463867 467.941986,390.745758 458.785431,390.652039 
	C448.789734,390.549713 438.791748,390.577545 428.795471,390.649384 
	C422.224030,390.696594 420.813416,391.880219 418.925476,398.643951 
	C414.247040,399.005463 409.658203,399.003052 404.614899,399.005737 
M262.722656,301.825592 
	C265.664795,302.954681 268.601746,305.051056 271.549866,305.066864 
	C311.842834,305.283386 352.137360,305.214355 392.431488,305.203033 
	C393.760223,305.202667 395.124512,305.237549 396.410767,304.965454 
	C399.913208,304.224670 401.902039,301.988159 402.166229,298.399658 
	C402.428131,294.842010 400.957001,292.123871 397.519196,291.026001 
	C395.508575,290.383911 393.273315,290.234344 391.137909,290.227264 
	C373.322113,290.168030 355.506042,290.193481 337.690033,290.193481 
	C315.711426,290.193512 293.732697,290.160278 271.754211,290.210754 
	C263.430237,290.229858 260.466217,293.767456 262.722656,301.825592 
M410.250732,370.305298 
	C416.671631,369.974213 420.008514,367.396698 419.938049,362.822510 
	C419.866516,358.177917 416.334137,355.381470 410.102936,355.303101 
	C402.968567,355.213318 395.826050,355.121674 388.698456,355.364899 
	C383.452148,355.543915 380.022156,359.014130 380.242035,363.251465 
	C380.459595,367.443634 383.687744,370.185059 388.897980,370.272980 
	C395.699951,370.387787 402.505219,370.305084 410.250732,370.305298 
M437.570587,279.910950 
	C433.589264,285.446747 434.788483,291.392120 440.664429,292.377716 
	C445.823395,293.243073 451.275665,292.981049 456.524628,292.465759 
	C459.898590,292.134521 462.642151,289.358765 461.938660,285.859924 
	C461.399200,283.176819 459.117828,278.934479 457.296509,278.764862 
	C451.005920,278.179169 444.577545,279.073090 437.570587,279.910950 
z"/>
<path fill="#FBCB92" opacity="1.000000" stroke="none" 
	d="
M16.409824,314.445709 
	C17.772274,297.696777 21.377401,282.128052 30.800821,268.389587 
	C30.988316,268.116211 31.117699,267.803009 31.304909,267.529388 
	C42.877613,250.612442 60.903145,250.694412 72.560913,267.572021 
	C81.013809,279.809753 85.183144,293.592438 86.822998,308.078918 
	C89.161163,328.734497 87.426483,349.082581 77.980118,367.951355 
	C74.850258,374.203186 70.431000,380.191620 65.370316,385.006775 
	C57.411533,392.579529 47.199780,392.276642 38.581291,385.384552 
	C30.073811,378.581116 25.432444,369.160278 21.992710,359.183319 
	C17.053728,344.857758 15.331285,330.035736 16.409824,314.445709 
M59.575283,351.921387 
	C57.360321,356.423340 56.598980,361.989166 50.855003,363.916809 
	C45.746792,365.631104 43.763271,368.644135 44.866470,373.068970 
	C45.898140,377.206848 49.657463,379.189789 54.671127,378.313751 
	C61.743237,377.077972 65.899818,372.193726 69.214874,366.461853 
	C76.588493,353.712463 78.427643,339.596985 78.940598,325.213226 
	C79.164291,318.940491 76.501068,315.345947 71.789108,315.155151 
	C67.113777,314.965851 64.588615,318.545013 63.879013,324.682709 
	C62.853672,333.551361 61.221245,342.349823 59.575283,351.921387 
M31.659307,284.309540 
	C26.717697,296.494659 24.789957,309.227814 24.911236,322.300293 
	C24.952057,326.700012 27.861219,329.849213 31.810595,329.963074 
	C36.101238,330.086853 38.739178,327.802795 39.510979,323.682007 
	C39.965595,321.254730 39.566006,318.661896 40.063442,316.249237 
	C41.961964,307.041229 43.775776,297.796570 46.237926,288.733124 
	C47.262009,284.963379 49.749691,281.898285 54.379143,280.851196 
	C58.217602,279.983002 59.750446,276.572876 59.035007,272.620728 
	C58.350124,268.837402 55.819973,266.930450 52.058147,266.761810 
	C46.892056,266.530212 42.509171,268.532074 39.355991,272.474762 
	C36.582645,275.942535 34.401451,279.883850 31.659307,284.309540 
z"/>
<path fill="#FBCB92" opacity="1.000000" stroke="none" 
	d="
M217.779480,258.048889 
	C227.747406,264.911591 233.133377,274.764099 236.572388,285.398590 
	C245.582428,313.260498 245.480957,341.085938 232.925812,367.962433 
	C229.919891,374.397156 225.172104,380.439606 219.971161,385.327972 
	C212.334030,392.506042 202.334412,392.134247 193.969360,385.726746 
	C185.434830,379.189453 180.522034,369.979034 177.313751,360.181335 
	C168.075455,331.968628 168.315460,303.858368 181.078796,276.647278 
	C183.830994,270.779724 188.107056,265.301910 192.742401,260.717590 
	C200.008896,253.531113 208.116516,253.074799 217.779480,258.048889 
M232.112793,343.559753 
	C232.735077,336.604828 233.624619,329.659760 233.881454,322.691345 
	C234.040787,318.368378 230.659943,315.281616 226.732010,315.150452 
	C222.891251,315.022125 219.599640,317.995300 219.106735,322.270935 
	C218.840485,324.580566 219.005341,326.936798 218.813217,329.258575 
	C217.930771,339.922577 216.467102,350.466766 210.795349,359.853333 
	C207.909149,364.629883 205.345276,364.831940 203.112778,359.749054 
	C200.139069,352.978577 197.840317,345.813629 196.158066,338.606567 
	C194.924789,333.323059 195.329590,327.677368 194.667068,322.234100 
	C194.141129,317.913055 191.496658,315.097321 186.999557,315.257141 
	C183.126480,315.394806 180.124954,317.666870 180.035995,321.757904 
	C179.680161,338.123535 181.722473,354.157623 190.675385,368.261078 
	C199.930878,382.841187 215.721664,382.165924 223.880402,366.762299 
	C227.555069,359.824554 229.345627,351.888855 232.112793,343.559753 
M199.284256,298.149353 
	C199.290573,298.982574 199.224655,299.823730 199.314987,300.647766 
	C199.884705,305.845276 202.733948,308.941742 206.896622,308.938019 
	C211.280090,308.934082 214.160614,305.577545 214.283188,300.113617 
	C214.376602,295.949646 214.413620,291.776489 214.247040,287.616608 
	C214.045288,282.577911 211.432404,279.840027 207.069321,279.734314 
	C202.786224,279.630585 199.837219,282.338165 199.400696,287.241699 
	C199.106186,290.549957 199.305603,293.902222 199.284256,298.149353 
z"/>
<path fill="#C05C08" opacity="1.000000" stroke="none" 
	d="
M150.986298,307.953369 
	C139.535965,308.000122 128.085526,308.029816 116.635368,308.102661 
	C112.482826,308.129059 109.018013,309.425690 107.964867,313.942352 
	C106.739815,319.196198 110.106201,323.006653 116.121765,323.070953 
	C127.406685,323.191559 138.693375,323.147980 150.461761,323.691711 
	C150.601135,336.548126 151.765137,348.804932 156.096008,360.332031 
	C159.958435,370.612366 165.182465,380.381073 169.805618,390.375580 
	C156.983765,390.475983 144.162048,390.620850 131.339996,390.665100 
	C116.675873,390.715668 102.011429,390.676819 87.347122,390.676819 
	C85.739311,390.676819 84.131493,390.676788 82.060699,390.676788 
	C85.418533,385.128296 88.222160,380.092926 91.493851,375.382629 
	C92.277077,374.255005 94.614578,373.752289 96.243958,373.738190 
	C110.573914,373.614471 124.905396,373.667755 139.236420,373.664337 
	C140.735901,373.663971 142.244537,373.737427 143.733231,373.602905 
	C149.425766,373.088562 152.294235,370.381195 152.156815,365.756195 
	C152.027344,361.398956 149.201004,358.570343 143.735199,358.450806 
	C132.242493,358.199524 120.741028,358.347809 109.243156,358.334290 
	C105.791245,358.330231 102.339317,358.333649 98.435249,358.333649 
	C106.351295,321.503357 104.666565,286.829590 82.359756,255.141403 
	C83.418434,255.080841 84.335976,255.028336 85.651329,255.392136 
	C91.953232,267.192078 101.381813,275.276978 113.510132,277.663452 
	C125.699516,280.061951 138.502747,279.340698 151.036926,279.987122 
	C152.920456,280.084290 154.803833,280.184387 156.507843,280.273743 
	C154.582825,289.923889 152.784561,298.938629 150.986298,307.953369 
z"/>
<path fill="#FACA91" opacity="1.000000" stroke="none" 
	d="
M157.076859,217.944962 
	C152.923157,227.754318 149.898727,237.805603 144.548416,246.410751 
	C134.217819,263.025879 117.081947,263.488525 105.050972,248.298752 
	C102.385750,244.933762 99.914764,241.233673 98.213959,237.314804 
	C84.932861,206.713577 84.737350,175.916992 98.372307,145.463211 
	C101.137169,139.287872 105.854156,133.581131 110.835892,128.897064 
	C118.662079,121.538506 128.786911,121.736816 137.259308,128.381470 
	C145.976120,135.217819 150.713577,144.778214 154.159073,154.953445 
	C161.112930,175.489548 161.697266,196.407883 157.076859,217.944962 
M135.069000,207.502243 
	C133.020966,214.133408 131.190475,220.844925 128.789459,227.345734 
	C128.088837,229.242691 125.761734,230.538940 124.180145,232.110535 
	C122.609924,230.501266 120.194405,229.148651 119.614510,227.238693 
	C116.978333,218.556152 113.908585,209.838135 112.767021,200.906372 
	C110.848305,185.894073 112.233505,170.933945 118.868660,157.010834 
	C120.170280,154.279541 122.777252,151.569962 125.468887,150.236267 
	C129.976135,148.002899 132.293304,145.422974 131.360870,141.313263 
	C130.375488,136.970184 126.767159,134.845398 121.807533,135.618896 
	C114.484612,136.760971 110.195839,141.766327 106.829407,147.685211 
	C98.920799,161.590149 97.051414,176.941681 97.182602,192.525131 
	C97.308052,207.425385 99.249710,222.128799 106.961243,235.332565 
	C111.275696,242.719833 116.949860,248.349106 126.565475,247.120377 
	C133.972961,246.173782 138.252884,241.027039 141.596909,235.155090 
	C148.964340,222.218246 150.962357,207.949448 151.175018,193.323883 
	C151.257584,187.644760 148.829102,184.340927 144.407181,184.013000 
	C139.834518,183.673920 136.709534,186.952408 136.218628,192.700348 
	C135.822586,197.337769 135.506790,201.982040 135.069000,207.502243 
z"/>
<path fill="#B95808" opacity="1.000000" stroke="none" 
	d="
M168.399597,259.055847 
	C177.534836,243.265152 190.952881,234.031326 209.839447,234.025467 
	C275.214325,234.005188 340.589172,234.003876 406.424072,233.983582 
	C405.880005,238.605362 403.189789,239.970200 398.349854,239.955795 
	C335.958435,239.770187 273.565247,240.026169 211.175125,239.687775 
	C196.832993,239.609985 185.693985,244.828979 176.829437,255.568237 
	C174.602783,258.265778 172.336868,259.852509 168.399597,259.055847 
z"/>
<path fill="#95470C" opacity="1.000000" stroke="none" 
	d="
M151.417664,308.011169 
	C152.784561,298.938629 154.582825,289.923889 156.507843,280.273743 
	C154.803833,280.184387 152.920456,280.084290 151.036926,279.987122 
	C138.502747,279.340698 125.699516,280.061951 113.510132,277.663452 
	C101.381813,275.276978 91.953232,267.192078 86.005363,255.463852 
	C89.170677,254.302612 91.439690,255.207047 93.656761,257.931580 
	C102.655380,268.989990 113.973030,274.973175 128.739685,274.255890 
	C140.623795,273.678619 152.558304,274.139038 164.382889,274.139038 
	C161.561554,285.480927 158.857727,296.350464 155.997086,307.850342 
	C155.043793,307.900574 153.446411,307.984772 151.417664,308.011169 
z"/>
<path fill="#8D440B" opacity="1.000000" stroke="none" 
	d="
M170.216492,390.523102 
	C165.182465,380.381073 159.958435,370.612366 156.096008,360.332031 
	C151.765137,348.804932 150.601135,336.548126 150.916992,323.769226 
	C152.352280,323.241852 153.814774,323.155975 155.752182,323.042206 
	C156.891434,347.375427 161.332474,370.474640 177.447708,390.670624 
	C174.456451,390.670624 172.541901,390.670624 170.216492,390.523102 
z"/>
<path fill="#020100" opacity="1.000000" stroke="none" 
	d="
M279.000000,174.049072 
	C258.834320,174.048721 239.167221,174.161407 219.504578,173.916885 
	C216.792969,173.883163 213.468430,172.755478 211.541962,170.947174 
	C208.038055,167.658142 209.760696,161.675858 214.406082,159.913422 
	C216.354858,159.174042 218.635269,159.085220 220.765564,159.081558 
	C250.097336,159.031296 279.429230,159.047348 308.761108,159.048340 
	C309.760986,159.048370 310.766296,158.996262 311.759827,159.079117 
	C316.476776,159.472565 319.704529,162.470901 319.769470,166.470978 
	C319.837860,170.687149 316.467926,173.944916 311.497925,174.001129 
	C300.833130,174.121735 290.166107,174.044998 279.000000,174.049072 
z"/>
<path fill="#020100" opacity="1.000000" stroke="none" 
	d="
M334.000000,231.969299 
	C324.677094,231.968948 315.853851,232.013748 307.031372,231.952408 
	C301.106903,231.911224 297.801880,229.184341 297.768524,224.515442 
	C297.734863,219.806351 301.026917,216.994522 306.895630,216.985580 
	C331.200195,216.948563 355.504883,216.945786 379.809448,216.989685 
	C385.541260,217.000031 389.059692,220.061188 388.936127,224.636276 
	C388.816925,229.048126 385.444397,231.918808 379.946198,231.943375 
	C364.797699,232.011063 349.648773,231.968353 334.000000,231.969299 
z"/>
<path fill="#060301" opacity="1.000000" stroke="none" 
	d="
M323.296936,149.185593 
	C317.158020,148.656616 314.072968,146.008530 314.116608,141.697388 
	C314.160187,137.392960 317.608093,134.383484 322.999146,134.198746 
	C326.646393,134.073761 330.327454,133.973938 333.949707,134.320129 
	C338.774567,134.781281 341.411224,137.853302 341.224701,142.146118 
	C341.037628,146.452377 338.244049,148.965408 333.221619,149.152863 
	C330.070251,149.270477 326.911224,149.182922 323.296936,149.185593 
z"/>
<path fill="#050301" opacity="1.000000" stroke="none" 
	d="
M262.507568,301.515198 
	C260.466217,293.767456 263.430237,290.229858 271.754211,290.210754 
	C293.732697,290.160278 315.711426,290.193512 337.690033,290.193481 
	C355.506042,290.193481 373.322113,290.168030 391.137909,290.227264 
	C393.273315,290.234344 395.508575,290.383911 397.519196,291.026001 
	C400.957001,292.123871 402.428131,294.842010 402.166229,298.399658 
	C401.902039,301.988159 399.913208,304.224670 396.410767,304.965454 
	C395.124512,305.237549 393.760223,305.202667 392.431488,305.203033 
	C352.137360,305.214355 311.842834,305.283386 271.549866,305.066864 
	C268.601746,305.051056 265.664795,302.954681 262.507568,301.515198 
z"/>
<path fill="#060301" opacity="1.000000" stroke="none" 
	d="
M409.779907,370.306335 
	C402.505219,370.305084 395.699951,370.387787 388.897980,370.272980 
	C383.687744,370.185059 380.459595,367.443634 380.242035,363.251465 
	C380.022156,359.014130 383.452148,355.543915 388.698456,355.364899 
	C395.826050,355.121674 402.968567,355.213318 410.102936,355.303101 
	C416.334137,355.381470 419.866516,358.177917 419.938049,362.822510 
	C420.008514,367.396698 416.671631,369.974213 409.779907,370.306335 
z"/>
<path fill="#040201" opacity="1.000000" stroke="none" 
	d="
M437.886108,279.657288 
	C444.577545,279.073090 451.005920,278.179169 457.296509,278.764862 
	C459.117828,278.934479 461.399200,283.176819 461.938660,285.859924 
	C462.642151,289.358765 459.898590,292.134521 456.524628,292.465759 
	C451.275665,292.981049 445.823395,293.243073 440.664429,292.377716 
	C434.788483,291.392120 433.589264,285.446747 437.886108,279.657288 
z"/>
<path fill="#050403" opacity="1.000000" stroke="none" 
	d="
M59.711559,351.549805 
	C61.221245,342.349823 62.853672,333.551361 63.879013,324.682709 
	C64.588615,318.545013 67.113777,314.965851 71.789108,315.155151 
	C76.501068,315.345947 79.164291,318.940491 78.940598,325.213226 
	C78.427643,339.596985 76.588493,353.712463 69.214874,366.461853 
	C65.899818,372.193726 61.743237,377.077972 54.671127,378.313751 
	C49.657463,379.189789 45.898140,377.206848 44.866470,373.068970 
	C43.763271,368.644135 45.746792,365.631104 50.855003,363.916809 
	C56.598980,361.989166 57.360321,356.423340 59.711559,351.549805 
z"/>
<path fill="#040302" opacity="1.000000" stroke="none" 
	d="
M31.809025,283.962769 
	C34.401451,279.883850 36.582645,275.942535 39.355991,272.474762 
	C42.509171,268.532074 46.892056,266.530212 52.058147,266.761810 
	C55.819973,266.930450 58.350124,268.837402 59.035007,272.620728 
	C59.750446,276.572876 58.217602,279.983002 54.379143,280.851196 
	C49.749691,281.898285 47.262009,284.963379 46.237926,288.733124 
	C43.775776,297.796570 41.961964,307.041229 40.063442,316.249237 
	C39.566006,318.661896 39.965595,321.254730 39.510979,323.682007 
	C38.739178,327.802795 36.101238,330.086853 31.810595,329.963074 
	C27.861219,329.849213 24.952057,326.700012 24.911236,322.300293 
	C24.789957,309.227814 26.717697,296.494659 31.809025,283.962769 
z"/>
<path fill="#050403" opacity="1.000000" stroke="none" 
	d="
M232.051910,343.982849 
	C229.345627,351.888855 227.555069,359.824554 223.880402,366.762299 
	C215.721664,382.165924 199.930878,382.841187 190.675385,368.261078 
	C181.722473,354.157623 179.680161,338.123535 180.035995,321.757904 
	C180.124954,317.666870 183.126480,315.394806 186.999557,315.257141 
	C191.496658,315.097321 194.141129,317.913055 194.667068,322.234100 
	C195.329590,327.677368 194.924789,333.323059 196.158066,338.606567 
	C197.840317,345.813629 200.139069,352.978577 203.112778,359.749054 
	C205.345276,364.831940 207.909149,364.629883 210.795349,359.853333 
	C216.467102,350.466766 217.930771,339.922577 218.813217,329.258575 
	C219.005341,326.936798 218.840485,324.580566 219.106735,322.270935 
	C219.599640,317.995300 222.891251,315.022125 226.732010,315.150452 
	C230.659943,315.281616 234.040787,318.368378 233.881454,322.691345 
	C233.624619,329.659760 232.735077,336.604828 232.051910,343.982849 
z"/>
<path fill="#070504" opacity="1.000000" stroke="none" 
	d="
M199.284149,297.692078 
	C199.305603,293.902222 199.106186,290.549957 199.400696,287.241699 
	C199.837219,282.338165 202.786224,279.630585 207.069321,279.734314 
	C211.432404,279.840027 214.045288,282.577911 214.247040,287.616608 
	C214.413620,291.776489 214.376602,295.949646 214.283188,300.113617 
	C214.160614,305.577545 211.280090,308.934082 206.896622,308.938019 
	C202.733948,308.941742 199.884705,305.845276 199.314987,300.647766 
	C199.224655,299.823730 199.290573,298.982574 199.284149,297.692078 
z"/>
<path fill="#040403" opacity="1.000000" stroke="none" 
	d="
M135.112198,207.062759 
	C135.506790,201.982040 135.822586,197.337769 136.218628,192.700348 
	C136.709534,186.952408 139.834518,183.673920 144.407181,184.013000 
	C148.829102,184.340927 151.257584,187.644760 151.175018,193.323883 
	C150.962357,207.949448 148.964340,222.218246 141.596909,235.155090 
	C138.252884,241.027039 133.972961,246.173782 126.565475,247.120377 
	C116.949860,248.349106 111.275696,242.719833 106.961243,235.332565 
	C99.249710,222.128799 97.308052,207.425385 97.182602,192.525131 
	C97.051414,176.941681 98.920799,161.590149 106.829407,147.685211 
	C110.195839,141.766327 114.484612,136.760971 121.807533,135.618896 
	C126.767159,134.845398 130.375488,136.970184 131.360870,141.313263 
	C132.293304,145.422974 129.976135,148.002899 125.468887,150.236267 
	C122.777252,151.569962 120.170280,154.279541 118.868660,157.010834 
	C112.233505,170.933945 110.848305,185.894073 112.767021,200.906372 
	C113.908585,209.838135 116.978333,218.556152 119.614510,227.238693 
	C120.194405,229.148651 122.609924,230.501266 124.180145,232.110535 
	C125.761734,230.538940 128.088837,229.242691 128.789459,227.345734 
	C131.190475,220.844925 133.020966,214.133408 135.112198,207.062759 
z"/>
</svg>